<svg xmlns="http://www.w3.org/2000/svg" width="20" height="20" viewBox="0 0 20 20" fill="none">
    <g clip-path="url(#clip0_4530_1932)">
        <path d="M0.833252 13.9723H2.46325V19.1667H0.833252V13.9723Z" fill="#694F85"/>
        <path d="M12.7536 14.3797C12.6857 14.5155 12.5838 14.6513 12.448 14.7871L13.0253 14.855C13.5686 14.9229 14.078 14.7531 14.4515 14.4136L14.5194 14.3457C14.9269 13.9722 15.4024 13.5309 15.9457 13.0896C16.2853 12.1389 16.3193 11.4599 16.0136 11.1883C15.8099 11.0186 15.6061 10.9507 15.4024 10.9846C14.4515 11.1544 13.3649 13.2253 12.7876 14.3117L12.7536 14.3797Z" fill="#694F85"/>
        <path d="M19.1018 12.8522C18.9999 12.6485 18.864 12.5466 18.6603 12.5127C18.3207 12.4448 17.7095 12.5806 16.4531 13.5651L16.4191 13.5991C15.8758 14.0404 15.3664 14.5158 14.9589 14.8892L14.891 14.9571C14.3816 15.4324 13.6685 15.6701 12.9214 15.5682L11.5291 15.4324L10.9518 15.3645C11.0197 15.6701 11.0877 15.9756 11.2235 16.2812C11.2914 16.4509 11.2235 16.6547 11.0537 16.7225C11.0197 16.7225 10.9518 16.7565 10.9179 16.7565C10.782 16.7565 10.6462 16.6886 10.6123 16.5528C10.4085 16.0775 10.3066 15.5682 10.2387 15.025C10.0689 13.2935 10.6462 11.63 11.0198 10.5097L11.0537 10.4418C11.1556 10.1362 11.0198 10.0683 10.9858 10.0343C10.7141 9.86459 9.96705 10.0004 9.38974 10.6455C8.71057 11.4263 7.86163 12.309 7.21641 13.056C6.46932 13.9047 5.45057 14.448 4.39781 14.5498C4.22801 14.5838 3.65072 14.6517 3.14136 14.7535V18.6579C3.44697 18.7597 3.82052 18.8616 4.12614 18.8276C4.70342 18.8276 9.69531 18.6579 12.3101 18.556C13.2269 18.5221 14.1098 18.2505 14.8229 17.7752C16.9623 16.2813 19.6109 13.7689 19.1017 12.8524L19.1018 12.8522Z" fill="#694F85"/>
        <path d="M13.4317 4.29637C13.4317 6.19756 11.9037 7.72532 10.002 7.72532C8.10038 7.72532 6.57227 6.16345 6.57227 4.26226C6.57227 2.36108 8.10038 0.833313 10.002 0.833313C11.9036 0.833313 13.4317 2.39519 13.4317 4.29637Z" fill="#694F85"/>
    </g>
    <defs>
        <clipPath id="clip0_4530_1932">
            <rect width="20" height="20" fill="white"/>
        </clipPath>
    </defs>
</svg>