<svg width="400" height="216" viewBox="0 0 400 216" fill="none" xmlns="http://www.w3.org/2000/svg">
    <g opacity="0.4" clip-path="url(#clip0_4540_2251)">
        <g filter="url(#filter0_f_4540_2251)">
            <path opacity="0.84" d="M323.212 163.769C323.517 166.072 321.354 168.139 320.235 168.884C319.835 168.638 318.972 168.141 318.721 168.119C320.108 166.723 320.392 164.682 320.36 163.836C320.674 163.863 321.684 163.888 323.212 163.769Z" fill="#662BD7"/>
            <path opacity="0.91" d="M114.763 211.487C113.132 209.885 113.556 206.973 113.973 205.717C114.432 205.665 115.403 205.527 115.611 205.392C115.381 207.315 116.398 209.07 116.935 209.707C116.675 209.876 115.876 210.468 114.763 211.487Z" fill="#662BD7"/>
            <path opacity="0.99" d="M57.4286 210.459C56.0157 207.053 58.482 202.996 59.8919 201.394C60.6064 201.606 62.1341 202.014 62.528 201.944C60.9752 204.655 61.3783 207.901 61.7739 209.185C61.2815 209.272 59.7231 209.648 57.4286 210.459Z" fill="#662BD7"/>
            <path opacity="0.83" d="M317.521 127.691C315.109 128.227 312.72 126.128 311.826 125.011C312.05 124.565 312.496 123.604 312.496 123.336C314.104 124.676 316.293 124.788 317.186 124.676C317.186 125.011 317.253 126.083 317.521 127.691Z" fill="#662BD7"/>
            <path opacity="0.99" d="M100.128 133.293C97.3917 131.415 97.2649 127.144 97.5436 125.243C98.1871 125.053 99.54 124.612 99.8032 124.367C99.9599 127.174 101.855 129.427 102.783 130.202C102.454 130.509 101.462 131.557 100.128 133.293Z" fill="#662BD7"/>
            <path opacity="0.88" d="M8.66414 141.561C10.3773 143.075 10.1055 146.006 9.7554 147.282C9.29945 147.358 8.33738 147.546 8.13675 147.692C8.2653 145.759 7.15844 144.06 6.58894 143.452C6.83974 143.269 7.60589 142.636 8.66414 141.561Z" fill="#662BD7"/>
            <path opacity="0.85" d="M369.635 35.603C366.202 33.5833 365.693 28.4814 365.867 26.1829C366.621 25.9017 368.204 25.2603 368.499 24.9444C368.921 28.2918 371.379 30.8296 372.555 31.68C372.186 32.0749 371.087 33.4124 369.635 35.603Z" fill="#662BD7"/>
            <path opacity="0.8" d="M105.968 14.6967C109.723 16.0243 111.196 20.9353 111.463 23.2249C110.776 23.6449 109.345 24.5764 109.116 24.9428C108.063 21.7374 105.166 19.7152 103.85 19.1048C104.136 18.6469 104.96 17.1241 105.968 14.6967Z" fill="#662BD7"/>
            <path opacity="0.82" d="M62.4883 79.4789C60.9157 77.5732 61.7013 74.4909 62.2907 73.188C62.7902 73.1841 63.8488 73.146 64.0876 73.0244C63.6237 75.0654 64.5178 77.0663 65.0229 77.8115C64.7244 77.9636 63.7996 78.51 62.4883 79.4789Z" fill="#662BD7"/>
        </g>
        <path opacity="0.79" d="M251.319 3.41175L255.528 2.92565C255.846 -0.14597 254.389 -5.61887 253.62 -7.97137C253.206 -7.94791 251.704 -7.69432 249.01 -6.8677C250.79 -4.0734 251.291 1.14956 251.319 3.41175Z" fill="#8E53FF"/>
        <path opacity="0.81" d="M40.1095 156.274L40.24 160.98C43.6092 161.629 49.8081 160.546 52.4865 159.923C52.5007 159.462 52.3655 157.775 51.7113 154.714C48.446 156.412 42.6163 156.462 40.1095 156.274Z" fill="#8E53FF"/>
        <path opacity="0.95" d="M153.039 118.403L149.705 122.052C151.776 125 157.248 128.703 159.725 130.187C160.072 129.849 161.201 128.476 162.94 125.687C159.234 124.588 154.795 120.373 153.039 118.403Z" fill="#8E53FF"/>
        <path opacity="0.86" d="M272.82 84.9364L277.241 85.1226C278.071 82.0059 277.462 76.122 277.054 73.5697C276.622 73.5262 275.031 73.5423 272.118 73.955C273.497 77.1283 273.161 82.5981 272.82 84.9364Z" fill="#8E53FF"/>
        <path opacity="0.8" d="M103.854 197.655L105.754 201.807C109.008 201.11 114.133 197.793 116.289 196.222C116.126 195.805 115.366 194.35 113.622 191.865C111.35 194.619 106.164 196.872 103.854 197.655Z" fill="#8E53FF"/>
        <path opacity="0.89" d="M338.211 162.503L338.264 167.681C341.957 168.46 348.795 167.388 351.753 166.754C351.778 166.247 351.661 164.389 351.001 161.01C347.377 162.815 340.964 162.758 338.211 162.503Z" fill="#8E53FF"/>
        <g filter="url(#filter1_f_4540_2251)">
            <circle opacity="0.87" cx="6.88997" cy="32.7733" r="2.22" transform="rotate(-68 6.88997 32.7733)" fill="#662BD7"/>
            <circle opacity="0.93" cx="286.152" cy="65.098" r="1.6" transform="rotate(67 286.152 65.098)" fill="#662BD7"/>
            <circle opacity="0.95" cx="242.796" cy="110.459" r="1.44" transform="rotate(-112 242.796 110.459)" fill="#662BD7"/>
            <circle opacity="0.92" cx="362.245" cy="92.0197" r="1.66" transform="rotate(-28 362.245 92.0197)" fill="#662BD7"/>
            <circle opacity="0.8" cx="42.7301" cy="183.963" r="1.22" transform="rotate(-144 42.7301 183.963)" fill="#662BD7"/>
            <circle opacity="0.79" cx="165.3" cy="155.643" r="1.78" transform="rotate(-69 165.3 155.643)" fill="#662BD7"/>
        </g>
        <g filter="url(#filter2_f_4540_2251)">
            <path opacity="0.93" d="M351.092 15.605C349.653 15.6887 348.087 14.348 347.484 13.6672L345.996 16.4383C346.799 17.1075 348.69 18.4561 349.83 18.4972C350.97 18.5383 352.861 19.8869 353.664 20.5561L355.378 17.9061C354.549 17.1042 352.532 15.5213 351.092 15.605Z" fill="#8E53FF"/>
            <path opacity="0.96" d="M169.905 33.2537C171.447 31.4592 174.814 31.1391 176.304 31.2034L174.73 26.2892C173.025 26.4741 169.278 27.1688 167.93 28.4676C166.582 29.7665 162.836 30.4611 161.131 30.6461L162.305 35.6885C164.196 35.6246 168.363 35.0482 169.905 33.2537Z" fill="#8E53FF"/>
            <path opacity="0.99" d="M300.812 102.546C302.274 103.249 303.083 105.423 303.305 106.421L306.281 104.506C305.856 103.41 304.731 101.052 303.631 100.389C302.532 99.7269 301.407 97.3686 300.982 96.2722L297.85 97.945C298.228 99.1859 299.349 101.844 300.812 102.546Z" fill="#8E53FF"/>
            <path opacity="0.97" d="M368.309 81.0708C368.392 79.2925 370.239 77.5432 371.153 76.8908L367.943 74.7065C367.018 75.6059 365.119 77.7532 364.921 79.1477C364.723 80.5422 362.824 82.6896 361.899 83.5889L364.931 86.0345C366.022 85.1208 368.226 82.849 368.309 81.0708Z" fill="#8E53FF"/>
            <path opacity="0.89" d="M131.441 72.5859C133.11 74.4185 133.013 77.9602 132.756 79.5021L138.066 78.4924C138.092 76.696 137.848 72.7115 136.669 71.144C135.491 69.5765 135.247 65.5919 135.272 63.7956L129.879 64.3731C129.704 66.3471 129.772 70.7534 131.441 72.5859Z" fill="#8E53FF"/>
            <path opacity="0.97" d="M234.563 94.5222C236.813 96.0214 237.645 99.796 237.78 101.496L243.135 99.0255C242.688 97.1173 241.378 92.9641 239.717 91.6159C238.056 90.2677 236.746 86.1144 236.299 84.2063L230.743 86.2409C231.078 88.3766 232.313 93.0229 234.563 94.5222Z" fill="#8E53FF"/>
            <path opacity="0.98" d="M391.919 217.246C389.832 216.458 388.463 213.578 388.039 212.237L384.193 215.217C384.907 216.667 386.73 219.763 388.316 220.538C389.901 221.314 391.725 224.409 392.438 225.86L396.527 223.194C395.861 221.539 394.007 218.033 391.919 217.246Z" fill="#8E53FF"/>
        </g>
        <g filter="url(#filter3_f_4540_2251)">
            <path opacity="0.84" d="M92.0118 56.6886C91.9585 55.5101 92.6904 53.8505 97.2428 54.076C99.8753 54.2064 100.397 50.9234 99.2793 48.8857" stroke="#7A3FEB" stroke-width="2" stroke-linecap="round"/>
            <path opacity="0.77" d="M330.014 80.3548C329.1 79.1663 328.652 76.9041 333.557 73.819C336.394 72.0351 334.544 68.2351 331.893 66.9283" stroke="#7A3FEB" stroke-width="2" stroke-linecap="round"/>
            <path opacity="0.83" d="M40.2087 120.158C41.4699 119.853 43.4156 120.295 44.1276 125.258C44.5394 128.128 48.1939 128.002 50.1595 126.367" stroke="#7A3FEB" stroke-width="2" stroke-linecap="round"/>
            <path opacity="0.84" d="M200.87 145.017C201.801 143.492 204.125 142.029 209.649 146.167C212.844 148.559 216.279 144.88 216.601 141.375" stroke="#7A3FEB" stroke-width="2" stroke-linecap="round"/>
        </g>
    </g>
    <defs>
        <filter id="filter0_f_4540_2251" x="3.58887" y="11.6967" width="371.966" height="202.79" filterUnits="userSpaceOnUse" color-interpolation-filters="sRGB">
            <feFlood flood-opacity="0" result="BackgroundImageFix"/>
            <feBlend mode="normal" in="SourceGraphic" in2="BackgroundImageFix" result="shape"/>
            <feGaussianBlur stdDeviation="1.5" result="effect1_foregroundBlur_4540_2251"/>
        </filter>
        <filter id="filter1_f_4540_2251" x="-19.4551" y="24.5527" width="439.995" height="166.63" filterUnits="userSpaceOnUse" color-interpolation-filters="sRGB">
            <feFlood flood-opacity="0" result="BackgroundImageFix"/>
            <feBlend mode="normal" in="SourceGraphic" in2="BackgroundImageFix" result="shape"/>
            <feGaussianBlur stdDeviation="3" result="effect1_foregroundBlur_4540_2251"/>
        </filter>
        <filter id="filter2_f_4540_2251" x="126.813" y="-103.753" width="285.534" height="332.614" filterUnits="userSpaceOnUse" color-interpolation-filters="sRGB">
            <feFlood flood-opacity="0" result="BackgroundImageFix"/>
            <feBlend mode="normal" in="SourceGraphic" in2="BackgroundImageFix" result="shape"/>
            <feGaussianBlur stdDeviation="1.5" result="effect1_foregroundBlur_4540_2251"/>
        </filter>
        <filter id="filter3_f_4540_2251" x="37.2085" y="45.8856" width="300.772" height="104.045" filterUnits="userSpaceOnUse" color-interpolation-filters="sRGB">
            <feFlood flood-opacity="0" result="BackgroundImageFix"/>
            <feBlend mode="normal" in="SourceGraphic" in2="BackgroundImageFix" result="shape"/>
            <feGaussianBlur stdDeviation="1" result="effect1_foregroundBlur_4540_2251"/>
        </filter>
        <clipPath id="clip0_4540_2251">
            <rect width="432" height="229" fill="white" transform="translate(-16 -7)"/>
        </clipPath>
    </defs>
</svg>
