<svg width="125" height="124" viewBox="0 0 125 124" fill="none" xmlns="http://www.w3.org/2000/svg">
<rect x="0.5" width="124" height="124" rx="62" fill="#F7F2FC"/>
<path d="M34.6644 41.5097C35.3449 38.8559 37.7367 37 40.4764 37H85.5236C88.2633 37 90.6551 38.8559 91.3356 41.5097L96.1951 60.4617C96.3963 61.2464 96.4365 62.0637 96.3133 62.8643L93.4903 81.2142C93.04 84.1412 90.5215 86.3019 87.56 86.3019H38.44C35.4785 86.3019 32.96 84.1412 32.5097 81.2142L29.6867 62.8643C29.5635 62.0637 29.6037 61.2464 29.8049 60.4617L34.6644 41.5097Z" fill="white" stroke="#56428D" stroke-width="2" stroke-linejoin="round"/>
<path d="M30.1318 61.6509H46.7238L51.2499 67.9874C52.3761 69.5642 54.1946 70.5 56.1323 70.5H70.4993C72.437 70.5 74.2554 69.5642 75.3817 67.9874L79.9078 61.6509H96.4998" stroke="#56428D" stroke-width="2" stroke-linejoin="round"/>
<path d="M83.6505 49.6415H42.3486C40.1395 49.6415 38.3486 51.4324 38.3486 53.6415V60.0189L38.4205 59.3544C38.7502 56.3083 41.3219 53.9999 44.3857 53.9999H81.5383C84.4176 53.9999 86.891 56.0453 87.4316 58.8734L87.6505 60.0189V53.6415C87.6505 51.4324 85.8597 49.6415 83.6505 49.6415Z" fill="#56428D" stroke="#56428D" stroke-width="2" stroke-linejoin="round"/>
<path d="M87.6505 61.0189V59.9623C87.6505 57.7531 85.8597 55.9623 83.6505 55.9623H42.3486C40.1395 55.9623 38.3486 57.7531 38.3486 59.9623V61.0189" stroke="#56428D" stroke-width="2" stroke-linejoin="round"/>
<path d="M87.6505 54.6981V47.3207C87.6505 45.1116 85.8597 43.3207 83.6505 43.3207H42.3486C40.1395 43.3207 38.3486 45.1116 38.3486 47.3207V54.6981" stroke="#56428D" stroke-width="2" stroke-linejoin="round"/>
<path d="M97.3805 35.4454C96.4778 35.4316 95.7349 36.1522 95.7211 37.0548V37.0548C95.7073 37.9575 96.4279 38.7004 97.3305 38.7142L102.75 38.797C103.652 38.8108 104.395 38.0902 104.409 37.1876V37.1876C104.423 36.2849 103.702 35.542 102.8 35.5282L97.3805 35.4454Z" stroke="#56428D" stroke-width="2" stroke-linejoin="round"/>
<path d="M90.1547 26.1081C90.1685 25.2055 90.9114 24.4849 91.8141 24.4987V24.4987C92.7167 24.5125 93.4373 25.2554 93.4235 26.1581L93.3407 31.5773C93.3269 32.4799 92.584 33.2005 91.6813 33.1867V33.1867C90.7786 33.1729 90.0581 32.43 90.0719 31.5273L90.1547 26.1081Z" stroke="#56428D" stroke-width="2" stroke-linejoin="round"/>
<circle cx="32.5" cy="82" r="13" fill="white" stroke="#56428D" stroke-width="2"/>
<path d="M31 75.5C31 74.6716 31.6716 74 32.5 74V74C33.3284 74 34 74.6716 34 75.5V81.5C34 82.3284 33.3284 83 32.5 83V83C31.6716 83 31 82.3284 31 81.5V75.5Z" stroke="#56428D" stroke-width="2" stroke-linejoin="round"/>
<path d="M31 88.5C31 89.3284 31.6716 90 32.5 90V90C33.3284 90 34 89.3284 34 88.5V88.5C34 87.6716 33.3284 87 32.5 87V87C31.6716 87 31 87.6716 31 88.5V88.5Z" stroke="#56428D" stroke-width="2" stroke-linejoin="round"/>
</svg>
