<svg width="23" height="12" viewBox="0 0 23 12" fill="none" xmlns="http://www.w3.org/2000/svg">
    <path d="M5.11914 2.8186C6.73315 2.81865 7.96976 3.22218 8.83008 4.02759V4.02954C8.83539 4.03362 8.84038 4.03814 8.8457 4.04224C8.84712 4.04358 8.84917 4.0448 8.85059 4.04614V4.04517C9.42891 4.49048 10.0757 5.02818 10.334 5.24438V11.4045H8.85059L8.94629 10.385C8.49978 10.8568 7.94122 11.2235 7.27148 11.4856C6.60174 11.7582 5.84666 11.8896 5.00684 11.8792C4.2417 11.8791 3.55098 11.7897 2.93457 11.6116C2.32858 11.4333 1.80698 11.1602 1.37109 10.7932C0.935365 10.4262 0.600044 9.96506 0.366211 9.40942C0.132369 8.8432 0.0106303 8.1768 0 7.41138C4.31387e-05 6.62523 0.111819 5.94401 0.334961 5.36743C0.568853 4.79068 0.903954 4.3133 1.33984 3.93579C1.78633 3.55836 2.32303 3.28005 2.9502 3.10181C3.58804 2.91309 4.31123 2.8186 5.11914 2.8186ZM5.11914 4.15552C3.88616 4.15552 2.98232 4.40213 2.4082 4.89478C1.83413 5.38761 1.53593 6.21108 1.51465 7.3645C1.53591 8.50751 1.85006 9.32061 2.45605 9.80298C3.06203 10.2747 3.93897 10.511 5.08691 10.511C5.66101 10.511 6.17664 10.4525 6.63379 10.3372C7.10133 10.2219 7.49462 10.0388 7.81348 9.78735C8.13242 9.53568 8.37775 9.21025 8.54785 8.81177C8.72855 8.41331 8.82433 7.9307 8.83496 7.3645C8.81368 6.21107 8.49453 5.39275 7.87793 4.9104C7.27198 4.41762 6.35219 4.16604 5.11914 4.15552ZM10.334 2.63794H8.85059V0.474854H10.334V2.63794Z" fill="#694F85"/>
    <path d="M17.3809 9.06018C15.767 9.06013 14.5302 8.65746 13.6699 7.85217V7.84924C13.0863 7.4008 12.4271 6.85294 12.166 6.6344V0.47522H13.6494L13.5537 1.49475C14.0002 1.02287 14.5587 0.655347 15.2285 0.393188C15.8982 0.120636 16.6534 -0.00987434 17.4932 0.000610352C18.2583 0.000639915 18.949 0.0900135 19.5654 0.268188C20.1714 0.446457 20.693 0.718549 21.1289 1.08557C21.5648 1.45259 21.8999 1.91458 22.1338 2.47034C22.3675 3.03646 22.4894 3.70219 22.5 4.46741C22.5 5.25388 22.3883 5.93558 22.165 6.51233C21.9311 7.08905 21.596 7.56647 21.1602 7.94397C20.7137 8.32131 20.1769 8.59876 19.5498 8.77698C18.9119 8.96573 18.1888 9.06018 17.3809 9.06018ZM17.3809 7.72327C18.614 7.72327 19.5177 7.47681 20.0918 6.98401C20.6659 6.49115 20.9641 5.66778 20.9854 4.51428C20.964 3.3715 20.6499 2.55909 20.0439 2.07678C19.438 1.60499 18.5612 1.36878 17.4131 1.36877C16.839 1.36877 16.3233 1.42629 15.8662 1.54163C15.3986 1.65695 15.0054 1.84084 14.6865 2.09241C14.3676 2.34408 14.1223 2.66951 13.9521 3.06799C13.7716 3.46629 13.6757 3.94842 13.665 4.51428C13.6863 5.66765 14.0056 6.48599 14.6221 6.96838C15.228 7.4612 16.1478 7.71274 17.3809 7.72327ZM12.166 9.24182H13.6494V11.4039H12.166V9.24182Z" fill="#694F85"/>
</svg>
