<svg width="70" height="70" viewBox="0 0 70 70" fill="none" xmlns="http://www.w3.org/2000/svg">
<rect width="70" height="70" rx="12" fill="#5D28CC"/>
<path d="M16.0381 28.6943C18.5729 28.6943 20.5152 29.3306 21.8662 30.6006V30.6035C21.8744 30.6099 21.8824 30.6167 21.8906 30.623C21.8928 30.6251 21.8953 30.6268 21.8975 30.6289V30.6279C22.8049 31.3294 23.8202 32.1761 24.2266 32.5176V42.3574H21.8975L22.0479 40.6211C21.3467 41.365 20.4706 41.9442 19.4189 42.3574C18.3673 42.7872 17.182 42.9931 15.8633 42.9766C14.6613 42.9766 13.5757 42.8367 12.6074 42.5557C11.6563 42.2747 10.8386 41.8449 10.1543 41.2666C9.46986 40.688 8.94343 39.9601 8.57617 39.084C8.20901 38.1915 8.01673 37.142 8 35.9355C8 34.6959 8.17585 33.621 8.52637 32.7119C8.89361 31.8028 9.41912 31.0502 10.1035 30.4551C10.8046 29.86 11.6479 29.4216 12.6328 29.1406C13.6343 28.8431 14.7695 28.6944 16.0381 28.6943ZM16.0381 30.8027C14.1018 30.8028 12.6827 31.1909 11.7812 31.9678C10.8799 32.7447 10.4123 34.0423 10.3789 35.8604C10.4123 37.6621 10.905 38.9437 11.8564 39.7041C12.808 40.448 14.1854 40.8193 15.9883 40.8193C16.8897 40.8193 17.6992 40.7287 18.417 40.5469C19.1515 40.365 19.7697 40.0764 20.2705 39.6797C20.7713 39.283 21.1548 38.7698 21.4219 38.1416C21.7056 37.5135 21.8564 36.7529 21.873 35.8604C21.8396 34.0422 21.3383 32.7525 20.3701 31.9922C19.4186 31.2155 17.9743 30.8193 16.0381 30.8027ZM24.2266 28.4092H21.8975V25H24.2266V28.4092Z" fill="#FDFCFD"/>
<path d="M53.9619 42.3057C51.4271 42.3057 49.4848 41.6694 48.1338 40.3994L48.1338 40.3965C48.1256 40.3901 48.1176 40.3833 48.1094 40.377C48.1072 40.3749 48.1047 40.3732 48.1025 40.3711L48.1025 40.3721C47.195 39.6706 46.1797 38.8238 45.7734 38.4824L45.7734 28.6426L48.1025 28.6426L47.9521 30.3789C48.6533 29.635 49.5294 29.0558 50.5811 28.6426C51.6327 28.2128 52.818 28.0069 54.1367 28.0234C55.3387 28.0234 56.4243 28.1633 57.3926 28.4443C58.344 28.7254 59.1614 29.1559 59.8457 29.7344C60.5301 30.3129 61.0566 31.0399 61.4238 31.916C61.7911 32.8086 61.9833 33.8588 62 35.0654C62 36.3049 61.8241 37.3791 61.4736 38.2881C61.1064 39.1972 60.5809 39.9498 59.8965 40.5449C59.1954 41.14 58.3521 41.5784 57.3672 41.8594C56.3657 42.1569 55.2305 42.3056 53.9619 42.3057ZM53.9619 40.1973C55.8982 40.1972 57.3173 39.8091 58.2188 39.0322C59.12 38.2553 59.5877 36.9577 59.6211 35.1396C59.5877 33.3379 59.0951 32.0563 58.1436 31.2959C57.192 30.552 55.8146 30.1807 54.0117 30.1807C53.1104 30.1807 52.3008 30.2713 51.583 30.4531C50.8485 30.635 50.2303 30.9246 49.7295 31.3213C49.2289 31.718 48.8452 32.2304 48.5781 32.8584C48.2944 33.4865 48.1436 34.247 48.127 35.1396C48.1604 36.9579 48.6617 38.2474 49.6299 39.0078C50.5814 39.7846 52.0257 40.1807 53.9619 40.1973ZM45.7734 42.5908L48.1025 42.5908L48.1025 46L45.7734 46L45.7734 42.5908Z" fill="#FDFCFD"/>
<path d="M33.2124 33.912V36.8456L28.936 42.3574H25.981L31.5396 35.4892L26.5317 29.2158H29.4868L33.2124 33.912ZM38.3755 35.4638L43.9351 42.3574H40.98L36.7339 37.0947V33.957L40.4292 29.2158H43.3335L38.3755 35.4638Z" fill="#FDFCFD"/>
</svg>
