<svg width="96" height="96" viewBox="0 0 96 96" fill="none" xmlns="http://www.w3.org/2000/svg">
<path d="M48 8C25.9401 8 8 25.9364 8 47.9918C8 63.8441 17.2737 77.5795 30.6836 84.0451V84.078H30.7493C35.9688 86.5887 41.8285 88 48 88C70.0599 88 88 70.0636 88 48.0082C88 25.9364 70.0599 8 48 8ZM48 11.2821C68.238 11.2821 84.7173 27.758 84.7173 47.9918C84.7173 53.801 83.3549 59.3149 80.9421 64.2051C75.657 61.6451 70.2897 59.7415 64.8732 58.4451V27.8236C64.8732 26.7569 64.0361 25.9036 62.9856 25.9036H56.2561H39.3008H32.5712C31.5371 25.9036 30.6836 26.7569 30.6836 27.8236V58.5928C25.4313 59.8892 20.2117 61.76 15.0743 64.2215C12.6451 59.3149 11.2827 53.8174 11.2827 47.9918C11.2827 27.758 27.762 11.2821 48 11.2821ZM17.1916 67.9138C21.5412 65.7641 26.055 64.1067 30.7 62.958V80.3528C25.2015 77.4154 20.5564 73.1159 17.1916 67.9138ZM39.3008 83.6513V42.6749C39.3008 37.9323 43.1908 34.0103 47.8359 34.0103C52.4809 34.0103 56.2561 37.8503 56.2561 42.5764C56.2561 42.6092 56.2396 42.6421 56.2396 42.6749H56.2561V56.9354C52.3004 56.4759 48.3283 56.3282 44.3562 56.5415L41.0899 61.2841C46.1781 60.8574 51.135 60.8903 56.0263 61.4482C56.0755 61.4482 56.1083 61.4482 56.1576 61.4646C56.1904 61.4646 56.2232 61.4646 56.2725 61.481C57.126 61.5795 60.2281 61.9733 63.0677 62.679L56.2725 64.9928V83.7826C53.6135 84.3897 50.856 84.7344 48.0328 84.7344C44.9963 84.7015 42.0911 84.3241 39.3008 83.6513ZM64.8568 80.5826V63.04C69.4854 64.2051 74.0648 65.9118 78.6606 68.1436C75.2138 73.3785 70.4538 77.6779 64.8568 80.5826Z" fill="url(#paint0_linear_19903_57460)"/>
<defs>
<linearGradient id="paint0_linear_19903_57460" x1="47.9993" y1="89.7308" x2="47.9993" y2="-4.26617" gradientUnits="userSpaceOnUse">
<stop offset="0.0858" stop-color="#8D29C1"/>
<stop offset="0.2383" stop-color="#942BBB"/>
<stop offset="0.4667" stop-color="#A92FAC"/>
<stop offset="0.7413" stop-color="#CA3793"/>
<stop offset="1" stop-color="#F03F77"/>
</linearGradient>
</defs>
</svg>
